<svg id="visual" viewBox="0 0 900 600" width="900" height="600" xmlns="http://www.w3.org/2000/svg" xmlns:xlink="http://www.w3.org/1999/xlink" version="1.1"><g stroke-width="1" stroke-linejoin="bevel"><path d="M434 291L440 268.1L428 256.4Z" fill="#fac8e8" stroke="#836E9F"></path><path d="M428 256.4L406 296.9L434 291Z" fill="#fac8e8" stroke="#836E9F"></path><path d="M428 256.4L393 285.7L406 296.9Z" fill="#fac8e8" stroke="#836E9F"></path><path d="M482 263.4L446 254.4L440 268.1Z" fill="#f5bbea" stroke="#836E9F"></path><path d="M440 268.1L446 254.4L428 256.4Z" fill="#fac8e8" stroke="#836E9F"></path><path d="M446 254.4L416 243L428 256.4Z" fill="#f5bbea" stroke="#836E9F"></path><path d="M428 256.4L416 243L393 285.7Z" fill="#c297ff" stroke="#836E9F"></path><path d="M400 343.9L420 313.1L406 296.9Z" fill="#f5bbea" stroke="#836E9F"></path><path d="M406 296.9L420 313.1L434 291Z" fill="#c297ff" stroke="#836E9F"></path><path d="M485 297.7L440 268.1L434 291Z" fill="#e6a9f1" stroke="#836E9F"></path><path d="M485 297.7L482 263.4L440 268.1Z" fill="#dfa4f4" stroke="#836E9F"></path><path d="M436 193.1L392 209.3L416 243Z" fill="#f5bbea" stroke="#836E9F"></path><path d="M459 352.7L485 297.7L434 291Z" fill="#d79ff7" stroke="#836E9F"></path><path d="M348 329.9L400 343.9L406 296.9Z" fill="#ecafee" stroke="#836E9F"></path><path d="M420 313.1L459 352.7L434 291Z" fill="#fbcfe8" stroke="#836E9F"></path><path d="M392 209.3L371 223.6L416 243Z" fill="#fbcfe8" stroke="#836E9F"></path><path d="M416 243L371 223.6L393 285.7Z" fill="#d79ff7" stroke="#836E9F"></path><path d="M393 285.7L348 329.9L406 296.9Z" fill="#f5bbea" stroke="#836E9F"></path><path d="M449 208.1L416 243L446 254.4Z" fill="#d79ff7" stroke="#836E9F"></path><path d="M496 222L449 208.1L446 254.4Z" fill="#f1b5ec" stroke="#836E9F"></path><path d="M449 208.1L436 193.1L416 243Z" fill="#fac8e8" stroke="#836E9F"></path><path d="M400 343.9L459 352.7L420 313.1Z" fill="#ecafee" stroke="#836E9F"></path><path d="M322 257L348 329.9L393 285.7Z" fill="#c297ff" stroke="#836E9F"></path><path d="M530 288.1L496 222L482 263.4Z" fill="#f5bbea" stroke="#836E9F"></path><path d="M482 263.4L496 222L446 254.4Z" fill="#fac8e8" stroke="#836E9F"></path><path d="M449 208.1L440 166.6L436 193.1Z" fill="#c297ff" stroke="#836E9F"></path><path d="M358 198.6L349 213.1L371 223.6Z" fill="#ecafee" stroke="#836E9F"></path><path d="M371 223.6L322 257L393 285.7Z" fill="#f8c1e9" stroke="#836E9F"></path><path d="M358 198.6L371 223.6L392 209.3Z" fill="#cd9bfb" stroke="#836E9F"></path><path d="M459 352.7L502 330.6L485 297.7Z" fill="#dfa4f4" stroke="#836E9F"></path><path d="M485 297.7L530 288.1L482 263.4Z" fill="#f1b5ec" stroke="#836E9F"></path><path d="M415 160.3L358 198.6L392 209.3Z" fill="#dfa4f4" stroke="#836E9F"></path><path d="M349 213.1L322 257L371 223.6Z" fill="#fbcfe8" stroke="#836E9F"></path><path d="M502 330.6L530 288.1L485 297.7Z" fill="#fbcfe8" stroke="#836E9F"></path><path d="M447 159.7L440 166.6L449 208.1Z" fill="#ecafee" stroke="#836E9F"></path><path d="M436 193.1L415 160.3L392 209.3Z" fill="#fac8e8" stroke="#836E9F"></path><path d="M440 166.6L415 160.3L436 193.1Z" fill="#dfa4f4" stroke="#836E9F"></path><path d="M500 175.7L447 159.7L449 208.1Z" fill="#fac8e8" stroke="#836E9F"></path><path d="M440 166.6L447 159.7L415 160.3Z" fill="#fac8e8" stroke="#836E9F"></path><path d="M351 377.4L400 393.9L400 343.9Z" fill="#e6a9f1" stroke="#836E9F"></path><path d="M400 343.9L400 393.9L459 352.7Z" fill="#d79ff7" stroke="#836E9F"></path><path d="M459 352.7L487 387L502 330.6Z" fill="#dfa4f4" stroke="#836E9F"></path><path d="M291 247.9L298 266.4L322 257Z" fill="#c297ff" stroke="#836E9F"></path><path d="M322 257L298 266.4L348 329.9Z" fill="#fbcfe8" stroke="#836E9F"></path><path d="M291 247.9L322 257L301 201.4Z" fill="#ecafee" stroke="#836E9F"></path><path d="M313 364L351 377.4L348 329.9Z" fill="#fac8e8" stroke="#836E9F"></path><path d="M348 329.9L351 377.4L400 343.9Z" fill="#f1b5ec" stroke="#836E9F"></path><path d="M511 174.3L500 175.7L496 222Z" fill="#fac8e8" stroke="#836E9F"></path><path d="M496 222L500 175.7L449 208.1Z" fill="#dfa4f4" stroke="#836E9F"></path><path d="M400 393.9L487 387L459 352.7Z" fill="#f8c1e9" stroke="#836E9F"></path><path d="M502 330.6L532 384.9L530 288.1Z" fill="#f5bbea" stroke="#836E9F"></path><path d="M301 201.4L322 257L349 213.1Z" fill="#c297ff" stroke="#836E9F"></path><path d="M530 288.1L543 218.1L496 222Z" fill="#c297ff" stroke="#836E9F"></path><path d="M487 387L514 373.4L502 330.6Z" fill="#fbcfe8" stroke="#836E9F"></path><path d="M543 218.1L511 174.3L496 222Z" fill="#f8c1e9" stroke="#836E9F"></path><path d="M500 175.7L474 108.4L447 159.7Z" fill="#fbcfe8" stroke="#836E9F"></path><path d="M447 159.7L400 141.4L415 160.3Z" fill="#fac8e8" stroke="#836E9F"></path><path d="M415 160.3L400 141.4L358 198.6Z" fill="#f5bbea" stroke="#836E9F"></path><path d="M358 198.6L301 201.4L349 213.1Z" fill="#e6a9f1" stroke="#836E9F"></path><path d="M474 108.4L400 141.4L447 159.7Z" fill="#f5bbea" stroke="#836E9F"></path><path d="M286 353L313 364L348 329.9Z" fill="#f5bbea" stroke="#836E9F"></path><path d="M280 285L348 329.9L298 266.4Z" fill="#fac8e8" stroke="#836E9F"></path><path d="M289 167.6L301 201.4L358 198.6Z" fill="#fbcfe8" stroke="#836E9F"></path><path d="M487 486.3L498 393.9L487 387Z" fill="#dfa4f4" stroke="#836E9F"></path><path d="M487 387L498 393.9L514 373.4Z" fill="#f5bbea" stroke="#836E9F"></path><path d="M278 279.1L298 266.4L291 247.9Z" fill="#cd9bfb" stroke="#836E9F"></path><path d="M278 279.1L280 285L298 266.4Z" fill="#f5bbea" stroke="#836E9F"></path><path d="M274 221L278 279.1L291 247.9Z" fill="#c297ff" stroke="#836E9F"></path><path d="M289 167.6L296 203.4L301 201.4Z" fill="#fac8e8" stroke="#836E9F"></path><path d="M301 201.4L296 203.4L291 247.9Z" fill="#fac8e8" stroke="#836E9F"></path><path d="M278 279.1L275 302.3L280 285Z" fill="#f1b5ec" stroke="#836E9F"></path><path d="M280 285L275 302.3L348 329.9Z" fill="#e6a9f1" stroke="#836E9F"></path><path d="M530 288.1L563 221.3L543 218.1Z" fill="#e6a9f1" stroke="#836E9F"></path><path d="M543 218.1L590 189.4L511 174.3Z" fill="#f8c1e9" stroke="#836E9F"></path><path d="M600 267L563 221.3L530 288.1Z" fill="#fac8e8" stroke="#836E9F"></path><path d="M498 393.9L532 384.9L514 373.4Z" fill="#fac8e8" stroke="#836E9F"></path><path d="M514 373.4L532 384.9L502 330.6Z" fill="#d79ff7" stroke="#836E9F"></path><path d="M275 302.3L286 353L348 329.9Z" fill="#e6a9f1" stroke="#836E9F"></path><path d="M296 203.4L274 221L291 247.9Z" fill="#cd9bfb" stroke="#836E9F"></path><path d="M278 279.1L224 304.7L275 302.3Z" fill="#d79ff7" stroke="#836E9F"></path><path d="M286 353L296 370.6L313 364Z" fill="#dfa4f4" stroke="#836E9F"></path><path d="M313 364L324 431.9L351 377.4Z" fill="#dfa4f4" stroke="#836E9F"></path><path d="M351 377.4L384 453.3L400 393.9Z" fill="#f5bbea" stroke="#836E9F"></path><path d="M275 302.3L284 354.7L286 353Z" fill="#cd9bfb" stroke="#836E9F"></path><path d="M286 353L284 354.7L296 370.6Z" fill="#e6a9f1" stroke="#836E9F"></path><path d="M400 141.4L353 130.3L358 198.6Z" fill="#f8c1e9" stroke="#836E9F"></path><path d="M296 203.4L255 174.4L274 221Z" fill="#f8c1e9" stroke="#836E9F"></path><path d="M577 143.7L519 137.7L511 174.3Z" fill="#d79ff7" stroke="#836E9F"></path><path d="M511 174.3L519 137.7L500 175.7Z" fill="#e6a9f1" stroke="#836E9F"></path><path d="M400 141.4L400 81.6L353 130.3Z" fill="#dfa4f4" stroke="#836E9F"></path><path d="M353 130.3L289 167.6L358 198.6Z" fill="#d79ff7" stroke="#836E9F"></path><path d="M519 137.7L474 108.4L500 175.7Z" fill="#e6a9f1" stroke="#836E9F"></path><path d="M627 300.3L600 267L530 288.1Z" fill="#cd9bfb" stroke="#836E9F"></path><path d="M563 221.3L590 189.4L543 218.1Z" fill="#cd9bfb" stroke="#836E9F"></path><path d="M324 431.9L384 453.3L351 377.4Z" fill="#f8c1e9" stroke="#836E9F"></path><path d="M400 393.9L429 485.3L487 387Z" fill="#f5bbea" stroke="#836E9F"></path><path d="M591 395L596 385.7L532 384.9Z" fill="#f8c1e9" stroke="#836E9F"></path><path d="M326 441.6L324 431.9L288 426.7Z" fill="#f8c1e9" stroke="#836E9F"></path><path d="M296 370.6L324 431.9L313 364Z" fill="#cd9bfb" stroke="#836E9F"></path><path d="M603 190.3L590 189.4L619 217.1Z" fill="#f8c1e9" stroke="#836E9F"></path><path d="M288 426.7L324 431.9L296 370.6Z" fill="#e6a9f1" stroke="#836E9F"></path><path d="M324 431.9L326 441.6L384 453.3Z" fill="#d79ff7" stroke="#836E9F"></path><path d="M353 130.3L317 113.7L289 167.6Z" fill="#d79ff7" stroke="#836E9F"></path><path d="M380 71.9L317 113.7L353 130.3Z" fill="#f1b5ec" stroke="#836E9F"></path><path d="M288 121.6L255 174.4L289 167.6Z" fill="#dfa4f4" stroke="#836E9F"></path><path d="M289 167.6L255 174.4L296 203.4Z" fill="#c297ff" stroke="#836E9F"></path><path d="M274 221L224 304.7L278 279.1Z" fill="#f5bbea" stroke="#836E9F"></path><path d="M459 79.7L400 81.6L400 141.4Z" fill="#e6a9f1" stroke="#836E9F"></path><path d="M459 76.6L459 79.7L498 68.9Z" fill="#e6a9f1" stroke="#836E9F"></path><path d="M474 108.4L459 79.7L400 141.4Z" fill="#f1b5ec" stroke="#836E9F"></path><path d="M459 79.7L474 108.4L498 68.9Z" fill="#cd9bfb" stroke="#836E9F"></path><path d="M218 197.3L224 304.7L274 221Z" fill="#ecafee" stroke="#836E9F"></path><path d="M275 302.3L224 304.7L284 354.7Z" fill="#f1b5ec" stroke="#836E9F"></path><path d="M212 378.4L288 426.7L296 370.6Z" fill="#ecafee" stroke="#836E9F"></path><path d="M619 217.1L590 189.4L563 221.3Z" fill="#fac8e8" stroke="#836E9F"></path><path d="M590 189.4L577 143.7L511 174.3Z" fill="#d79ff7" stroke="#836E9F"></path><path d="M212 378.4L296 370.6L284 354.7Z" fill="#dfa4f4" stroke="#836E9F"></path><path d="M498 68.9L474 108.4L519 137.7Z" fill="#f1b5ec" stroke="#836E9F"></path><path d="M459 79.7L459 76.6L400 81.6Z" fill="#fbcfe8" stroke="#836E9F"></path><path d="M277 113.9L288 121.6L317 113.7Z" fill="#c297ff" stroke="#836E9F"></path><path d="M317 113.7L288 121.6L289 167.6Z" fill="#dfa4f4" stroke="#836E9F"></path><path d="M603 190.3L577 143.7L590 189.4Z" fill="#d79ff7" stroke="#836E9F"></path><path d="M600 267L619 217.1L563 221.3Z" fill="#f5bbea" stroke="#836E9F"></path><path d="M636 193.4L576 130.7L577 143.7Z" fill="#c297ff" stroke="#836E9F"></path><path d="M591 395L532 384.9L559 439.9Z" fill="#f8c1e9" stroke="#836E9F"></path><path d="M532 384.9L616 356.9L530 288.1Z" fill="#fac8e8" stroke="#836E9F"></path><path d="M600 267L631 227.3L619 217.1Z" fill="#cd9bfb" stroke="#836E9F"></path><path d="M616 356.9L627 300.3L530 288.1Z" fill="#d79ff7" stroke="#836E9F"></path><path d="M383 8.7L380 71.9L400 81.6Z" fill="#fac8e8" stroke="#836E9F"></path><path d="M400 81.6L380 71.9L353 130.3Z" fill="#fac8e8" stroke="#836E9F"></path><path d="M559 439.9L532 384.9L498 393.9Z" fill="#f1b5ec" stroke="#836E9F"></path><path d="M429 488.6L429 485.3L384 453.3Z" fill="#ecafee" stroke="#836E9F"></path><path d="M384 453.3L429 485.3L400 393.9Z" fill="#dfa4f4" stroke="#836E9F"></path><path d="M429 488.6L384 453.3L359 499.6Z" fill="#c297ff" stroke="#836E9F"></path><path d="M634 402.4L616 356.9L596 385.7Z" fill="#e6a9f1" stroke="#836E9F"></path><path d="M596 385.7L616 356.9L532 384.9Z" fill="#ecafee" stroke="#836E9F"></path><path d="M636 193.4L577 143.7L603 190.3Z" fill="#f5bbea" stroke="#836E9F"></path><path d="M577 143.7L576 130.7L519 137.7Z" fill="#fbcfe8" stroke="#836E9F"></path><path d="M448 501.6L429 488.6L449 515.3Z" fill="#c297ff" stroke="#836E9F"></path><path d="M548 458.1L559 439.9L498 393.9Z" fill="#dfa4f4" stroke="#836E9F"></path><path d="M248 116.3L234 172.7L255 174.4Z" fill="#f5bbea" stroke="#836E9F"></path><path d="M255 174.4L218 197.3L274 221Z" fill="#fac8e8" stroke="#836E9F"></path><path d="M487 486.3L487 387L429 485.3Z" fill="#d79ff7" stroke="#836E9F"></path><path d="M654 234L631 227.3L600 267Z" fill="#dfa4f4" stroke="#836E9F"></path><path d="M619 217.1L636 193.4L603 190.3Z" fill="#cd9bfb" stroke="#836E9F"></path><path d="M316 0L277 113.9L317 113.7Z" fill="#f1b5ec" stroke="#836E9F"></path><path d="M288 121.6L248 116.3L255 174.4Z" fill="#f1b5ec" stroke="#836E9F"></path><path d="M234 172.7L218 197.3L255 174.4Z" fill="#ecafee" stroke="#836E9F"></path><path d="M555 85.6L498 68.9L519 137.7Z" fill="#f5bbea" stroke="#836E9F"></path><path d="M440 0L383 8.7L400 81.6Z" fill="#f5bbea" stroke="#836E9F"></path><path d="M448 501.6L487 486.3L429 485.3Z" fill="#f5bbea" stroke="#836E9F"></path><path d="M487 486.3L548 458.1L498 393.9Z" fill="#d79ff7" stroke="#836E9F"></path><path d="M559 439.9L586 454.3L591 395Z" fill="#ecafee" stroke="#836E9F"></path><path d="M616 356.9L647 299.7L627 300.3Z" fill="#d79ff7" stroke="#836E9F"></path><path d="M627 300.3L647 299.7L600 267Z" fill="#fbcfe8" stroke="#836E9F"></path><path d="M359 499.6L384 453.3L326 441.6Z" fill="#c297ff" stroke="#836E9F"></path><path d="M429 488.6L448 501.6L429 485.3Z" fill="#cd9bfb" stroke="#836E9F"></path><path d="M654 234L636 193.4L631 227.3Z" fill="#c297ff" stroke="#836E9F"></path><path d="M631 227.3L636 193.4L619 217.1Z" fill="#e6a9f1" stroke="#836E9F"></path><path d="M194 320L196 322.9L224 304.7Z" fill="#c297ff" stroke="#836E9F"></path><path d="M224 304.7L212 378.4L284 354.7Z" fill="#f5bbea" stroke="#836E9F"></path><path d="M138 261.3L194 320L224 304.7Z" fill="#dfa4f4" stroke="#836E9F"></path><path d="M579 63.9L555 85.6L576 130.7Z" fill="#f1b5ec" stroke="#836E9F"></path><path d="M576 130.7L555 85.6L519 137.7Z" fill="#f5bbea" stroke="#836E9F"></path><path d="M296 474.7L359 499.6L326 441.6Z" fill="#f5bbea" stroke="#836E9F"></path><path d="M172 379.4L212 378.4L196 322.9Z" fill="#e6a9f1" stroke="#836E9F"></path><path d="M196 322.9L212 378.4L224 304.7Z" fill="#d79ff7" stroke="#836E9F"></path><path d="M288 426.7L296 474.7L326 441.6Z" fill="#dfa4f4" stroke="#836E9F"></path><path d="M234 172.7L213 166.1L218 197.3Z" fill="#f8c1e9" stroke="#836E9F"></path><path d="M218 197.3L184 210.1L224 304.7Z" fill="#ecafee" stroke="#836E9F"></path><path d="M248 116.3L213 166.1L234 172.7Z" fill="#f1b5ec" stroke="#836E9F"></path><path d="M225 25.7L248 116.3L277 113.9Z" fill="#d79ff7" stroke="#836E9F"></path><path d="M277 113.9L248 116.3L288 121.6Z" fill="#d79ff7" stroke="#836E9F"></path><path d="M218 472.6L296 474.7L288 426.7Z" fill="#ecafee" stroke="#836E9F"></path><path d="M647 299.7L654 234L600 267Z" fill="#cd9bfb" stroke="#836E9F"></path><path d="M512 526.4L525 492.1L487 486.3Z" fill="#ecafee" stroke="#836E9F"></path><path d="M487 486.3L525 492.1L548 458.1Z" fill="#f8c1e9" stroke="#836E9F"></path><path d="M548 458.1L586 454.3L559 439.9Z" fill="#ecafee" stroke="#836E9F"></path><path d="M356 548.1L449 515.3L429 488.6Z" fill="#f1b5ec" stroke="#836E9F"></path><path d="M448 501.6L449 515.3L487 486.3Z" fill="#c297ff" stroke="#836E9F"></path><path d="M525 492.1L586 454.3L548 458.1Z" fill="#c297ff" stroke="#836E9F"></path><path d="M591 395L634 402.4L596 385.7Z" fill="#ecafee" stroke="#836E9F"></path><path d="M676 350L684 301.1L647 299.7Z" fill="#f1b5ec" stroke="#836E9F"></path><path d="M176 172.3L184 210.1L218 197.3Z" fill="#c297ff" stroke="#836E9F"></path><path d="M623 428.9L634 402.4L591 395Z" fill="#fac8e8" stroke="#836E9F"></path><path d="M165 184.6L176 218.6L184 210.1Z" fill="#d79ff7" stroke="#836E9F"></path><path d="M184 210.1L176 218.6L224 304.7Z" fill="#c297ff" stroke="#836E9F"></path><path d="M176 172.3L218 197.3L213 166.1Z" fill="#e6a9f1" stroke="#836E9F"></path><path d="M586 454.3L623 428.9L591 395Z" fill="#fbcfe8" stroke="#836E9F"></path><path d="M647 299.7L674 252.4L654 234Z" fill="#cd9bfb" stroke="#836E9F"></path><path d="M654 234L678 180.7L636 193.4Z" fill="#fbcfe8" stroke="#836E9F"></path><path d="M684 301.1L674 252.4L647 299.7Z" fill="#ecafee" stroke="#836E9F"></path><path d="M551 546.3L603 460.7L586 454.3Z" fill="#ecafee" stroke="#836E9F"></path><path d="M586 454.3L603 460.7L623 428.9Z" fill="#fac8e8" stroke="#836E9F"></path><path d="M706 112.6L579 63.9L576 130.7Z" fill="#f5bbea" stroke="#836E9F"></path><path d="M555 85.6L534 28.6L498 68.9Z" fill="#f8c1e9" stroke="#836E9F"></path><path d="M440 0L400 81.6L459 76.6Z" fill="#f8c1e9" stroke="#836E9F"></path><path d="M678 180.7L576 130.7L636 193.4Z" fill="#c297ff" stroke="#836E9F"></path><path d="M676 350L616 356.9L634 402.4Z" fill="#f5bbea" stroke="#836E9F"></path><path d="M676 350L647 299.7L616 356.9Z" fill="#dfa4f4" stroke="#836E9F"></path><path d="M296 474.7L312 517.4L359 499.6Z" fill="#ecafee" stroke="#836E9F"></path><path d="M359 499.6L356 548.1L429 488.6Z" fill="#e6a9f1" stroke="#836E9F"></path><path d="M297 542.3L312 517.4L296 474.7Z" fill="#dfa4f4" stroke="#836E9F"></path><path d="M647 420.7L634 402.4L623 428.9Z" fill="#cd9bfb" stroke="#836E9F"></path><path d="M665 415.4L676 350L634 402.4Z" fill="#f5bbea" stroke="#836E9F"></path><path d="M152 140.4L176 172.3L162 113.7Z" fill="#ecafee" stroke="#836E9F"></path><path d="M449 515.3L512 526.4L487 486.3Z" fill="#d79ff7" stroke="#836E9F"></path><path d="M630 516.1L628 480.3L603 460.7Z" fill="#cd9bfb" stroke="#836E9F"></path><path d="M536 546.4L503 600L535 583.3Z" fill="#f8c1e9" stroke="#836E9F"></path><path d="M655 459.4L647 420.7L623 428.9Z" fill="#c297ff" stroke="#836E9F"></path><path d="M440 0L459 76.6L456 0Z" fill="#f8c1e9" stroke="#836E9F"></path><path d="M380 71.9L316 0L317 113.7Z" fill="#fac8e8" stroke="#836E9F"></path><path d="M162 113.7L176 172.3L213 166.1Z" fill="#fbcfe8" stroke="#836E9F"></path><path d="M162 367.9L172 379.4L196 322.9Z" fill="#fbcfe8" stroke="#836E9F"></path><path d="M212 378.4L218 472.6L288 426.7Z" fill="#e6a9f1" stroke="#836E9F"></path><path d="M162 367.9L196 322.9L194 320Z" fill="#f5bbea" stroke="#836E9F"></path><path d="M162 367.9L194 320L112 299.9Z" fill="#ecafee" stroke="#836E9F"></path><path d="M579 63.9L534 28.6L555 85.6Z" fill="#e6a9f1" stroke="#836E9F"></path><path d="M176 172.3L165 184.6L184 210.1Z" fill="#f5bbea" stroke="#836E9F"></path><path d="M312 517.4L336 535.4L359 499.6Z" fill="#dfa4f4" stroke="#836E9F"></path><path d="M710 207.4L654 234L674 252.4Z" fill="#f8c1e9" stroke="#836E9F"></path><path d="M710 207.4L678 180.7L654 234Z" fill="#f8c1e9" stroke="#836E9F"></path><path d="M138 261.3L224 304.7L176 218.6Z" fill="#c297ff" stroke="#836E9F"></path><path d="M162 367.9L167 382.7L172 379.4Z" fill="#f8c1e9" stroke="#836E9F"></path><path d="M172 379.4L167 382.7L212 378.4Z" fill="#c297ff" stroke="#836E9F"></path><path d="M456 0L459 76.6L461 0Z" fill="#f1b5ec" stroke="#836E9F"></path><path d="M461 0L459 76.6L498 68.9Z" fill="#f8c1e9" stroke="#836E9F"></path><path d="M534 28.6L461 0L498 68.9Z" fill="#d79ff7" stroke="#836E9F"></path><path d="M336 535.4L356 548.1L359 499.6Z" fill="#fac8e8" stroke="#836E9F"></path><path d="M655 459.4L665 415.4L647 420.7Z" fill="#f5bbea" stroke="#836E9F"></path><path d="M647 420.7L665 415.4L634 402.4Z" fill="#dfa4f4" stroke="#836E9F"></path><path d="M495 -36.1L411 -6.1L440 0Z" fill="#e6a9f1" stroke="#836E9F"></path><path d="M440 0L411 -6.1L383 8.7Z" fill="#dfa4f4" stroke="#836E9F"></path><path d="M495 -36.1L440 0L456 0Z" fill="#e6a9f1" stroke="#836E9F"></path><path d="M676 350L696 342.6L684 301.1Z" fill="#dfa4f4" stroke="#836E9F"></path><path d="M715 229.3L710 207.4L674 252.4Z" fill="#f8c1e9" stroke="#836E9F"></path><path d="M695 351.9L696 342.6L676 350Z" fill="#e6a9f1" stroke="#836E9F"></path><path d="M192 467.1L218 472.6L212 378.4Z" fill="#f8c1e9" stroke="#836E9F"></path><path d="M312 517.4L297 542.3L336 535.4Z" fill="#ecafee" stroke="#836E9F"></path><path d="M336 535.4L329 571.1L356 548.1Z" fill="#ecafee" stroke="#836E9F"></path><path d="M347 -52.1L354 0L383 8.7Z" fill="#ecafee" stroke="#836E9F"></path><path d="M383 8.7L354 0L380 71.9Z" fill="#cd9bfb" stroke="#836E9F"></path><path d="M122 216.1L138 261.3L176 218.6Z" fill="#cd9bfb" stroke="#836E9F"></path><path d="M665 415.4L695 351.9L676 350Z" fill="#ecafee" stroke="#836E9F"></path><path d="M138 261.3L136 273L194 320Z" fill="#ecafee" stroke="#836E9F"></path><path d="M586 0L558 23.9L579 63.9Z" fill="#d79ff7" stroke="#836E9F"></path><path d="M579 63.9L558 23.9L534 28.6Z" fill="#f1b5ec" stroke="#836E9F"></path><path d="M534 28.6L518 -25.1L461 0Z" fill="#e6a9f1" stroke="#836E9F"></path><path d="M551 546.3L586 454.3L525 492.1Z" fill="#fbcfe8" stroke="#836E9F"></path><path d="M603 460.7L628 480.3L623 428.9Z" fill="#f1b5ec" stroke="#836E9F"></path><path d="M722 390L704 350.7L695 351.9Z" fill="#dfa4f4" stroke="#836E9F"></path><path d="M695 351.9L704 350.7L696 342.6Z" fill="#e6a9f1" stroke="#836E9F"></path><path d="M696 342.6L722 316.7L684 301.1Z" fill="#f8c1e9" stroke="#836E9F"></path><path d="M722 390L695 351.9L665 415.4Z" fill="#f5bbea" stroke="#836E9F"></path><path d="M479 600L512 526.4L449 515.3Z" fill="#d79ff7" stroke="#836E9F"></path><path d="M512 526.4L536 546.4L525 492.1Z" fill="#c297ff" stroke="#836E9F"></path><path d="M266 558.4L297 542.3L296 474.7Z" fill="#cd9bfb" stroke="#836E9F"></path><path d="M347 -52.1L316 0L354 0Z" fill="#ecafee" stroke="#836E9F"></path><path d="M354 0L316 0L380 71.9Z" fill="#e6a9f1" stroke="#836E9F"></path><path d="M176 172.3L152 140.4L165 184.6Z" fill="#fbcfe8" stroke="#836E9F"></path><path d="M715 229.3L674 252.4L684 301.1Z" fill="#fac8e8" stroke="#836E9F"></path><path d="M601 0L586 0L579 63.9Z" fill="#f8c1e9" stroke="#836E9F"></path><path d="M722 316.7L715 229.3L684 301.1Z" fill="#f5bbea" stroke="#836E9F"></path><path d="M651 467.6L655 459.4L623 428.9Z" fill="#d79ff7" stroke="#836E9F"></path><path d="M167 382.7L192 467.1L212 378.4Z" fill="#f5bbea" stroke="#836E9F"></path><path d="M207 520.6L266 558.4L296 474.7Z" fill="#c297ff" stroke="#836E9F"></path><path d="M155 483.7L192 467.1L127 442.6Z" fill="#cd9bfb" stroke="#836E9F"></path><path d="M635 491.6L651 467.6L628 480.3Z" fill="#c297ff" stroke="#836E9F"></path><path d="M628 480.3L651 467.6L623 428.9Z" fill="#f5bbea" stroke="#836E9F"></path><path d="M535 583.3L551 546.3L536 546.4Z" fill="#c297ff" stroke="#836E9F"></path><path d="M536 546.4L551 546.3L525 492.1Z" fill="#f1b5ec" stroke="#836E9F"></path><path d="M162 113.7L213 166.1L248 116.3Z" fill="#c297ff" stroke="#836E9F"></path><path d="M165 184.6L122 216.1L176 218.6Z" fill="#dfa4f4" stroke="#836E9F"></path><path d="M107 292L112 299.9L136 273Z" fill="#d79ff7" stroke="#836E9F"></path><path d="M768 333.6L722 316.7L704 350.7Z" fill="#fbcfe8" stroke="#836E9F"></path><path d="M704 350.7L722 316.7L696 342.6Z" fill="#c297ff" stroke="#836E9F"></path><path d="M630 516.1L635 491.6L628 480.3Z" fill="#cd9bfb" stroke="#836E9F"></path><path d="M128 177.3L122 216.1L165 184.6Z" fill="#f8c1e9" stroke="#836E9F"></path><path d="M225 25.7L162 113.7L248 116.3Z" fill="#f8c1e9" stroke="#836E9F"></path><path d="M152 140.4L128 177.3L165 184.6Z" fill="#c297ff" stroke="#836E9F"></path><path d="M31 125.7L128 177.3L152 140.4Z" fill="#c297ff" stroke="#836E9F"></path><path d="M297 542.3L329 571.1L336 535.4Z" fill="#f1b5ec" stroke="#836E9F"></path><path d="M356 548.1L426 600L449 515.3Z" fill="#f1b5ec" stroke="#836E9F"></path><path d="M266 558.4L329 571.1L297 542.3Z" fill="#f5bbea" stroke="#836E9F"></path><path d="M107 292L136 273L90 250.4Z" fill="#fac8e8" stroke="#836E9F"></path><path d="M136 273L112 299.9L194 320Z" fill="#d79ff7" stroke="#836E9F"></path><path d="M127 442.6L192 467.1L167 382.7Z" fill="#d79ff7" stroke="#836E9F"></path><path d="M90 250.4L136 273L138 261.3Z" fill="#f8c1e9" stroke="#836E9F"></path><path d="M197 515.4L218 472.6L192 467.1Z" fill="#dfa4f4" stroke="#836E9F"></path><path d="M90 250.4L138 261.3L122 216.1Z" fill="#ecafee" stroke="#836E9F"></path><path d="M558 23.9L518 -25.1L534 28.6Z" fill="#f8c1e9" stroke="#836E9F"></path><path d="M461 0L495 -36.1L456 0Z" fill="#f8c1e9" stroke="#836E9F"></path><path d="M411 -6.1L347 -52.1L383 8.7Z" fill="#f1b5ec" stroke="#836E9F"></path><path d="M586 0L518 -25.1L558 23.9Z" fill="#f8c1e9" stroke="#836E9F"></path><path d="M251 -45.1L266 0L316 0Z" fill="#fbcfe8" stroke="#836E9F"></path><path d="M316 0L266 0L277 113.9Z" fill="#f1b5ec" stroke="#836E9F"></path><path d="M266 0L225 25.7L277 113.9Z" fill="#d79ff7" stroke="#836E9F"></path><path d="M551 546.3L630 516.1L603 460.7Z" fill="#f1b5ec" stroke="#836E9F"></path><path d="M635 491.6L675 477.6L651 467.6Z" fill="#dfa4f4" stroke="#836E9F"></path><path d="M675 477.6L665 415.4L655 459.4Z" fill="#ecafee" stroke="#836E9F"></path><path d="M726 455.7L722 390L665 415.4Z" fill="#e6a9f1" stroke="#836E9F"></path><path d="M518 -25.1L495 -36.1L461 0Z" fill="#e6a9f1" stroke="#836E9F"></path><path d="M706 112.6L576 130.7L678 180.7Z" fill="#fac8e8" stroke="#836E9F"></path><path d="M518 -25.1L783 -56.1L495 -36.1Z" fill="#d79ff7" stroke="#836E9F"></path><path d="M675 477.6L655 459.4L651 467.6Z" fill="#f8c1e9" stroke="#836E9F"></path><path d="M207 520.6L296 474.7L218 472.6Z" fill="#ecafee" stroke="#836E9F"></path><path d="M674 526.1L675 477.6L635 491.6Z" fill="#fac8e8" stroke="#836E9F"></path><path d="M350 600L356 548.1L329 571.1Z" fill="#f8c1e9" stroke="#836E9F"></path><path d="M360 609.1L426 600L356 548.1Z" fill="#fbcfe8" stroke="#836E9F"></path><path d="M605 600L657 550.3L630 516.1Z" fill="#dfa4f4" stroke="#836E9F"></path><path d="M426 600L429 600L449 515.3Z" fill="#f5bbea" stroke="#836E9F"></path><path d="M429 600L432 600L449 515.3Z" fill="#fbcfe8" stroke="#836E9F"></path><path d="M197 515.4L207 520.6L218 472.6Z" fill="#f5bbea" stroke="#836E9F"></path><path d="M197 515.4L192 467.1L155 483.7Z" fill="#f5bbea" stroke="#836E9F"></path><path d="M725 120.4L678 180.7L710 207.4Z" fill="#dfa4f4" stroke="#836E9F"></path><path d="M725 120.4L706 112.6L678 180.7Z" fill="#dfa4f4" stroke="#836E9F"></path><path d="M725 120.4L710 207.4L780 187.6Z" fill="#d79ff7" stroke="#836E9F"></path><path d="M503 600L536 546.4L512 526.4Z" fill="#f1b5ec" stroke="#836E9F"></path><path d="M167 382.7L162 367.9L127 442.6Z" fill="#e6a9f1" stroke="#836E9F"></path><path d="M207 520.6L208 526.6L266 558.4Z" fill="#f5bbea" stroke="#836E9F"></path><path d="M656 0L601 0L579 63.9Z" fill="#f1b5ec" stroke="#836E9F"></path><path d="M586 0L601 0L518 -25.1Z" fill="#cd9bfb" stroke="#836E9F"></path><path d="M197 515.4L208 526.6L207 520.6Z" fill="#f1b5ec" stroke="#836E9F"></path><path d="M432 600L479 600L449 515.3Z" fill="#c297ff" stroke="#836E9F"></path><path d="M51 224.6L90 250.4L122 216.1Z" fill="#c297ff" stroke="#836E9F"></path><path d="M127 442.6L162 367.9L55 314.1Z" fill="#fac8e8" stroke="#836E9F"></path><path d="M332 654.1L350 600L329 571.1Z" fill="#f5bbea" stroke="#836E9F"></path><path d="M479 600L503 600L512 526.4Z" fill="#f8c1e9" stroke="#836E9F"></path><path d="M495 -36.1L347 -52.1L411 -6.1Z" fill="#f8c1e9" stroke="#836E9F"></path><path d="M266 0L224 0L225 25.7Z" fill="#f8c1e9" stroke="#836E9F"></path><path d="M162 113.7L142 87.4L152 140.4Z" fill="#d79ff7" stroke="#836E9F"></path><path d="M51 224.6L50 284.9L90 250.4Z" fill="#c297ff" stroke="#836E9F"></path><path d="M225 25.7L142 87.4L162 113.7Z" fill="#f5bbea" stroke="#836E9F"></path><path d="M127 442.6L93 454.3L114 470.4Z" fill="#c297ff" stroke="#836E9F"></path><path d="M197 515.4L204 535.3L208 526.6Z" fill="#fac8e8" stroke="#836E9F"></path><path d="M162 367.9L112 299.9L55 314.1Z" fill="#f5bbea" stroke="#836E9F"></path><path d="M208 526.6L204 535.3L266 558.4Z" fill="#e6a9f1" stroke="#836E9F"></path><path d="M332 654.1L360 609.1L350 600Z" fill="#d79ff7" stroke="#836E9F"></path><path d="M192 557.1L204 535.3L197 515.4Z" fill="#fbcfe8" stroke="#836E9F"></path><path d="M231 -23.1L224 0L266 0Z" fill="#e6a9f1" stroke="#836E9F"></path><path d="M225 25.7L164 5.9L142 87.4Z" fill="#f8c1e9" stroke="#836E9F"></path><path d="M247 600L329 571.1L266 558.4Z" fill="#fbcfe8" stroke="#836E9F"></path><path d="M350 600L360 609.1L356 548.1Z" fill="#f5bbea" stroke="#836E9F"></path><path d="M426 600L463 655.1L429 600Z" fill="#f5bbea" stroke="#836E9F"></path><path d="M429 600L463 655.1L432 600Z" fill="#fac8e8" stroke="#836E9F"></path><path d="M432 600L463 655.1L479 600Z" fill="#f8c1e9" stroke="#836E9F"></path><path d="M479 600L463 655.1L503 600Z" fill="#dfa4f4" stroke="#836E9F"></path><path d="M768 333.6L760 306.3L722 316.7Z" fill="#cd9bfb" stroke="#836E9F"></path><path d="M722 316.7L760 306.3L715 229.3Z" fill="#d79ff7" stroke="#836E9F"></path><path d="M769 232.1L710 207.4L715 229.3Z" fill="#d79ff7" stroke="#836E9F"></path><path d="M706 46.7L656 0L579 63.9Z" fill="#dfa4f4" stroke="#836E9F"></path><path d="M231 -23.1L212 0L224 0Z" fill="#cd9bfb" stroke="#836E9F"></path><path d="M224 0L212 0L225 25.7Z" fill="#f5bbea" stroke="#836E9F"></path><path d="M231 -23.1L210 0L212 0Z" fill="#cd9bfb" stroke="#836E9F"></path><path d="M212 0L210 0L225 25.7Z" fill="#e6a9f1" stroke="#836E9F"></path><path d="M463 655.1L545 600L503 600Z" fill="#ecafee" stroke="#836E9F"></path><path d="M503 600L545 600L535 583.3Z" fill="#e6a9f1" stroke="#836E9F"></path><path d="M535 583.3L545 600L551 546.3Z" fill="#fac8e8" stroke="#836E9F"></path><path d="M674 526.1L726 455.7L675 477.6Z" fill="#c297ff" stroke="#836E9F"></path><path d="M760 306.3L769 232.1L715 229.3Z" fill="#f1b5ec" stroke="#836E9F"></path><path d="M722 390L768 333.6L704 350.7Z" fill="#dfa4f4" stroke="#836E9F"></path><path d="M760 306.3L804 287.1L769 232.1Z" fill="#c297ff" stroke="#836E9F"></path><path d="M760 408.4L768 333.6L722 390Z" fill="#f8c1e9" stroke="#836E9F"></path><path d="M251 -45.1L231 -23.1L266 0Z" fill="#c297ff" stroke="#836E9F"></path><path d="M674 526.1L635 491.6L630 516.1Z" fill="#d79ff7" stroke="#836E9F"></path><path d="M675 477.6L726 455.7L665 415.4Z" fill="#dfa4f4" stroke="#836E9F"></path><path d="M829 432.3L771 330.7L768 333.6Z" fill="#d79ff7" stroke="#836E9F"></path><path d="M768 333.6L771 330.7L760 306.3Z" fill="#f5bbea" stroke="#836E9F"></path><path d="M657 550.3L674 526.1L630 516.1Z" fill="#f5bbea" stroke="#836E9F"></path><path d="M127 442.6L131 483.7L155 483.7Z" fill="#d79ff7" stroke="#836E9F"></path><path d="M155 483.7L192 557.1L197 515.4Z" fill="#fbcfe8" stroke="#836E9F"></path><path d="M114 470.4L131 483.7L127 442.6Z" fill="#fac8e8" stroke="#836E9F"></path><path d="M706 46.7L579 63.9L706 112.6Z" fill="#f5bbea" stroke="#836E9F"></path><path d="M601 0L783 -56.1L518 -25.1Z" fill="#f1b5ec" stroke="#836E9F"></path><path d="M605 600L630 516.1L551 546.3Z" fill="#f8c1e9" stroke="#836E9F"></path><path d="M782 475.4L775 442.4L726 455.7Z" fill="#dfa4f4" stroke="#836E9F"></path><path d="M347 -52.1L251 -45.1L316 0Z" fill="#f1b5ec" stroke="#836E9F"></path><path d="M105 541.1L192 557.1L155 483.7Z" fill="#f5bbea" stroke="#836E9F"></path><path d="M204 535.3L226 600L266 558.4Z" fill="#c297ff" stroke="#836E9F"></path><path d="M58 308.1L112 299.9L107 292Z" fill="#fac8e8" stroke="#836E9F"></path><path d="M129 600L185 600L192 557.1Z" fill="#dfa4f4" stroke="#836E9F"></path><path d="M726 455.7L760 408.4L722 390Z" fill="#f1b5ec" stroke="#836E9F"></path><path d="M50 284.9L107 292L90 250.4Z" fill="#f1b5ec" stroke="#836E9F"></path><path d="M50 284.9L58 308.1L107 292Z" fill="#fbcfe8" stroke="#836E9F"></path><path d="M756 97.6L706 46.7L706 112.6Z" fill="#e6a9f1" stroke="#836E9F"></path><path d="M756 97.6L706 112.6L725 120.4Z" fill="#f8c1e9" stroke="#836E9F"></path><path d="M26 286.9L55 314.1L58 308.1Z" fill="#fac8e8" stroke="#836E9F"></path><path d="M58 308.1L55 314.1L112 299.9Z" fill="#fbcfe8" stroke="#836E9F"></path><path d="M226 600L247 600L266 558.4Z" fill="#c297ff" stroke="#836E9F"></path><path d="M802 211.3L780 187.6L769 232.1Z" fill="#e6a9f1" stroke="#836E9F"></path><path d="M769 232.1L780 187.6L710 207.4Z" fill="#f5bbea" stroke="#836E9F"></path><path d="M51 224.6L122 216.1L128 177.3Z" fill="#f5bbea" stroke="#836E9F"></path><path d="M811 288.1L792 301.9L900 359.9Z" fill="#cd9bfb" stroke="#836E9F"></path><path d="M771 330.7L792 301.9L760 306.3Z" fill="#e6a9f1" stroke="#836E9F"></path><path d="M169 0L210 0L231 -23.1Z" fill="#c297ff" stroke="#836E9F"></path><path d="M169 0L164 5.9L210 0Z" fill="#cd9bfb" stroke="#836E9F"></path><path d="M210 0L164 5.9L225 25.7Z" fill="#c297ff" stroke="#836E9F"></path><path d="M31 125.7L51 224.6L128 177.3Z" fill="#f1b5ec" stroke="#836E9F"></path><path d="M545 600L605 600L551 546.3Z" fill="#f8c1e9" stroke="#836E9F"></path><path d="M628 609.1L605 600L545 600Z" fill="#cd9bfb" stroke="#836E9F"></path><path d="M706 46.7L673 0L656 0Z" fill="#d79ff7" stroke="#836E9F"></path><path d="M656 0L783 -56.1L601 0Z" fill="#f5bbea" stroke="#836E9F"></path><path d="M118 -28.1L169 0L231 -23.1Z" fill="#e6a9f1" stroke="#836E9F"></path><path d="M31 125.7L152 140.4L142 87.4Z" fill="#f1b5ec" stroke="#836E9F"></path><path d="M55 314.1L93 454.3L127 442.6Z" fill="#cd9bfb" stroke="#836E9F"></path><path d="M105 541.1L155 483.7L131 483.7Z" fill="#e6a9f1" stroke="#836E9F"></path><path d="M761 104.7L757 102.9L725 120.4Z" fill="#fbcfe8" stroke="#836E9F"></path><path d="M706 46.7L741 0L673 0Z" fill="#fac8e8" stroke="#836E9F"></path><path d="M185 600L226 600L192 557.1Z" fill="#cd9bfb" stroke="#836E9F"></path><path d="M192 557.1L226 600L204 535.3Z" fill="#fac8e8" stroke="#836E9F"></path><path d="M332 654.1L463 655.1L360 609.1Z" fill="#d79ff7" stroke="#836E9F"></path><path d="M761 104.7L756 97.6L757 102.9Z" fill="#dfa4f4" stroke="#836E9F"></path><path d="M757 102.9L756 97.6L725 120.4Z" fill="#cd9bfb" stroke="#836E9F"></path><path d="M801 135.9L761 104.7L725 120.4Z" fill="#f8c1e9" stroke="#836E9F"></path><path d="M332 654.1L329 571.1L247 600Z" fill="#fbcfe8" stroke="#836E9F"></path><path d="M360 609.1L463 655.1L426 600Z" fill="#d79ff7" stroke="#836E9F"></path><path d="M811 288.1L804 287.1L792 301.9Z" fill="#d79ff7" stroke="#836E9F"></path><path d="M792 301.9L804 287.1L760 306.3Z" fill="#c297ff" stroke="#836E9F"></path><path d="M780 187.6L801 135.9L725 120.4Z" fill="#f5bbea" stroke="#836E9F"></path><path d="M808 232.4L802 211.3L769 232.1Z" fill="#c297ff" stroke="#836E9F"></path><path d="M226 600L332 654.1L247 600Z" fill="#d79ff7" stroke="#836E9F"></path><path d="M804 287.1L808 232.4L769 232.1Z" fill="#d79ff7" stroke="#836E9F"></path><path d="M900 359.9L792 301.9L771 330.7Z" fill="#dfa4f4" stroke="#836E9F"></path><path d="M804 287.1L829 272L808 232.4Z" fill="#fbcfe8" stroke="#836E9F"></path><path d="M726 455.7L775 442.4L760 408.4Z" fill="#f5bbea" stroke="#836E9F"></path><path d="M760 408.4L829 432.3L768 333.6Z" fill="#d79ff7" stroke="#836E9F"></path><path d="M782 475.4L726 455.7L785 538.1Z" fill="#c297ff" stroke="#836E9F"></path><path d="M726 455.7L674 526.1L785 538.1Z" fill="#fbcfe8" stroke="#836E9F"></path><path d="M463 655.1L628 609.1L545 600Z" fill="#f1b5ec" stroke="#836E9F"></path><path d="M605 600L628 609.1L657 550.3Z" fill="#fbcfe8" stroke="#836E9F"></path><path d="M50 284.9L26 286.9L58 308.1Z" fill="#ecafee" stroke="#836E9F"></path><path d="M0 391.4L53 457.4L93 454.3Z" fill="#e6a9f1" stroke="#836E9F"></path><path d="M51 224.6L26 286.9L50 284.9Z" fill="#ecafee" stroke="#836E9F"></path><path d="M105 541.1L131 483.7L70 502.1Z" fill="#c297ff" stroke="#836E9F"></path><path d="M226 600L189 605.3L332 654.1Z" fill="#c297ff" stroke="#836E9F"></path><path d="M185 600L189 605.3L226 600Z" fill="#c297ff" stroke="#836E9F"></path><path d="M830 184.3L801 135.9L780 187.6Z" fill="#ecafee" stroke="#836E9F"></path><path d="M761 104.7L787 60.7L756 97.6Z" fill="#d79ff7" stroke="#836E9F"></path><path d="M787 60.7L741 0L706 46.7Z" fill="#f5bbea" stroke="#836E9F"></path><path d="M830 184.3L780 187.6L802 211.3Z" fill="#fbcfe8" stroke="#836E9F"></path><path d="M811 288.1L829 272L804 287.1Z" fill="#fbcfe8" stroke="#836E9F"></path><path d="M808 232.4L833 215.6L802 211.3Z" fill="#c297ff" stroke="#836E9F"></path><path d="M900 306.3L829 272L900 313.1Z" fill="#e6a9f1" stroke="#836E9F"></path><path d="M0 391.4L93 454.3L55 314.1Z" fill="#e6a9f1" stroke="#836E9F"></path><path d="M93 454.3L70 502.1L114 470.4Z" fill="#c297ff" stroke="#836E9F"></path><path d="M185 600L127 613.3L189 605.3Z" fill="#dfa4f4" stroke="#836E9F"></path><path d="M709 583.1L674 526.1L657 550.3Z" fill="#f5bbea" stroke="#836E9F"></path><path d="M775 442.4L829 432.3L760 408.4Z" fill="#d79ff7" stroke="#836E9F"></path><path d="M70 502.1L131 483.7L114 470.4Z" fill="#cd9bfb" stroke="#836E9F"></path><path d="M829 272L833 215.6L808 232.4Z" fill="#fbcfe8" stroke="#836E9F"></path><path d="M94 -9.3L142 87.4L164 5.9Z" fill="#cd9bfb" stroke="#836E9F"></path><path d="M0 71.9L31 125.7L142 87.4Z" fill="#fac8e8" stroke="#836E9F"></path><path d="M51 224.6L0 270L26 286.9Z" fill="#f1b5ec" stroke="#836E9F"></path><path d="M53 457.4L70 502.1L93 454.3Z" fill="#fbcfe8" stroke="#836E9F"></path><path d="M833 215.6L830 184.3L802 211.3Z" fill="#f5bbea" stroke="#836E9F"></path><path d="M2 195.6L0 270L51 224.6Z" fill="#ecafee" stroke="#836E9F"></path><path d="M26 286.9L0 322.1L55 314.1Z" fill="#e6a9f1" stroke="#836E9F"></path><path d="M705 600L709 583.1L657 550.3Z" fill="#ecafee" stroke="#836E9F"></path><path d="M787 60.7L761 104.7L801 135.9Z" fill="#f1b5ec" stroke="#836E9F"></path><path d="M787 60.7L706 46.7L756 97.6Z" fill="#cd9bfb" stroke="#836E9F"></path><path d="M673 0L783 -56.1L656 0Z" fill="#fbcfe8" stroke="#836E9F"></path><path d="M0 270L0 322.1L26 286.9Z" fill="#c297ff" stroke="#836E9F"></path><path d="M53 457.4L25 515.6L70 502.1Z" fill="#ecafee" stroke="#836E9F"></path><path d="M843 121.7L787 60.7L801 135.9Z" fill="#f8c1e9" stroke="#836E9F"></path><path d="M0 160.3L2 195.6L51 224.6Z" fill="#cd9bfb" stroke="#836E9F"></path><path d="M833 215.6L841 194.4L830 184.3Z" fill="#f8c1e9" stroke="#836E9F"></path><path d="M830 184.3L843 121.7L801 135.9Z" fill="#f5bbea" stroke="#836E9F"></path><path d="M855 190.1L841 194.4L833 215.6Z" fill="#cd9bfb" stroke="#836E9F"></path><path d="M251 -45.1L118 -28.1L231 -23.1Z" fill="#ecafee" stroke="#836E9F"></path><path d="M169 0L118 -28.1L164 5.9Z" fill="#d79ff7" stroke="#836E9F"></path><path d="M0 160.3L0 192.4L2 195.6Z" fill="#dfa4f4" stroke="#836E9F"></path><path d="M2 195.6L-28 221.3L0 270Z" fill="#f8c1e9" stroke="#836E9F"></path><path d="M705 600L657 550.3L628 609.1Z" fill="#fbcfe8" stroke="#836E9F"></path><path d="M705 600L718 586.1L709 583.1Z" fill="#ecafee" stroke="#836E9F"></path><path d="M709 583.1L785 538.1L674 526.1Z" fill="#cd9bfb" stroke="#836E9F"></path><path d="M73 566.3L107 569.3L105 541.1Z" fill="#f8c1e9" stroke="#836E9F"></path><path d="M105 541.1L107 569.3L192 557.1Z" fill="#d79ff7" stroke="#836E9F"></path><path d="M808 600L705 600L628 609.1Z" fill="#cd9bfb" stroke="#836E9F"></path><path d="M118 -28.1L94 -9.3L164 5.9Z" fill="#ecafee" stroke="#836E9F"></path><path d="M31 125.7L0 160.3L51 224.6Z" fill="#cd9bfb" stroke="#836E9F"></path><path d="M-7 165.7L0 160.3L0 119.6Z" fill="#fac8e8" stroke="#836E9F"></path><path d="M107 569.3L129 600L192 557.1Z" fill="#f8c1e9" stroke="#836E9F"></path><path d="M189 605.3L127 613.3L332 654.1Z" fill="#fbcfe8" stroke="#836E9F"></path><path d="M0 322.1L0 391.4L55 314.1Z" fill="#cd9bfb" stroke="#836E9F"></path><path d="M70 502.1L73 566.3L105 541.1Z" fill="#e6a9f1" stroke="#836E9F"></path><path d="M7 422.6L14 433.7L53 457.4Z" fill="#d79ff7" stroke="#836E9F"></path><path d="M849 465.3L829 432.3L782 475.4Z" fill="#c297ff" stroke="#836E9F"></path><path d="M782 475.4L829 432.3L775 442.4Z" fill="#c297ff" stroke="#836E9F"></path><path d="M900 199.4L855 190.1L833 215.6Z" fill="#f5bbea" stroke="#836E9F"></path><path d="M127 613.3L127 600L78 585.1Z" fill="#ecafee" stroke="#836E9F"></path><path d="M107 569.3L127 600L129 600Z" fill="#cd9bfb" stroke="#836E9F"></path><path d="M129 600L127 613.3L185 600Z" fill="#f5bbea" stroke="#836E9F"></path><path d="M0 391.4L7 422.6L53 457.4Z" fill="#d79ff7" stroke="#836E9F"></path><path d="M0 391.4L0 402.9L7 422.6Z" fill="#d79ff7" stroke="#836E9F"></path><path d="M0 119.6L0 160.3L31 125.7Z" fill="#ecafee" stroke="#836E9F"></path><path d="M0 160.3L-7 165.7L0 192.4Z" fill="#c297ff" stroke="#836E9F"></path><path d="M0 192.4L-28 221.3L2 195.6Z" fill="#dfa4f4" stroke="#836E9F"></path><path d="M0 270L-28 221.3L0 322.1Z" fill="#fac8e8" stroke="#836E9F"></path><path d="M0 322.1L-28 221.3L0 391.4Z" fill="#c297ff" stroke="#836E9F"></path><path d="M0 391.4L-28 221.3L0 402.9Z" fill="#ecafee" stroke="#836E9F"></path><path d="M900 199.4L833 215.6L829 272Z" fill="#dfa4f4" stroke="#836E9F"></path><path d="M841 194.4L855 190.1L830 184.3Z" fill="#f1b5ec" stroke="#836E9F"></path><path d="M-28 221.3L0 424.3L0 402.9Z" fill="#cd9bfb" stroke="#836E9F"></path><path d="M0 402.9L0 424.3L7 422.6Z" fill="#dfa4f4" stroke="#836E9F"></path><path d="M7 422.6L0 424.3L14 433.7Z" fill="#d79ff7" stroke="#836E9F"></path><path d="M25 515.6L73 566.3L70 502.1Z" fill="#fbcfe8" stroke="#836E9F"></path><path d="M78 585.1L127 600L107 569.3Z" fill="#fac8e8" stroke="#836E9F"></path><path d="M127 600L127 613.3L129 600Z" fill="#fac8e8" stroke="#836E9F"></path><path d="M718 586.1L785 538.1L709 583.1Z" fill="#f5bbea" stroke="#836E9F"></path><path d="M808 600L785 538.1L718 586.1Z" fill="#f1b5ec" stroke="#836E9F"></path><path d="M855 190.1L843 121.7L830 184.3Z" fill="#dfa4f4" stroke="#836E9F"></path><path d="M825 -9.1L774 -37.1L741 0Z" fill="#f1b5ec" stroke="#836E9F"></path><path d="M0 71.9L0 119.6L31 125.7Z" fill="#fac8e8" stroke="#836E9F"></path><path d="M-13 67.6L-28 221.3L-7 165.7Z" fill="#ecafee" stroke="#836E9F"></path><path d="M-7 165.7L-28 221.3L0 192.4Z" fill="#f1b5ec" stroke="#836E9F"></path><path d="M0 449.7L53 457.4L14 433.7Z" fill="#dfa4f4" stroke="#836E9F"></path><path d="M-28 221.3L0 449.7L0 424.3Z" fill="#d79ff7" stroke="#836E9F"></path><path d="M0 424.3L0 449.7L14 433.7Z" fill="#ecafee" stroke="#836E9F"></path><path d="M0 600L78 585.1L73 566.3Z" fill="#cd9bfb" stroke="#836E9F"></path><path d="M73 566.3L78 585.1L107 569.3Z" fill="#dfa4f4" stroke="#836E9F"></path><path d="M0 493.6L25 515.6L53 457.4Z" fill="#fac8e8" stroke="#836E9F"></path><path d="M785 538.1L826 501.1L782 475.4Z" fill="#f5bbea" stroke="#836E9F"></path><path d="M829 432.3L867 414.3L771 330.7Z" fill="#c297ff" stroke="#836E9F"></path><path d="M849 465.3L867 414.3L829 432.3Z" fill="#d79ff7" stroke="#836E9F"></path><path d="M0 55.7L0 71.9L142 87.4Z" fill="#f1b5ec" stroke="#836E9F"></path><path d="M0 119.6L-13 67.6L-7 165.7Z" fill="#f5bbea" stroke="#836E9F"></path><path d="M826 501.1L849 465.3L782 475.4Z" fill="#f5bbea" stroke="#836E9F"></path><path d="M783 -56.1L774 -37.1L825 -9.1Z" fill="#cd9bfb" stroke="#836E9F"></path><path d="M741 0L774 -37.1L673 0Z" fill="#cd9bfb" stroke="#836E9F"></path><path d="M495 -36.1L783 -56.1L347 -52.1Z" fill="#fbcfe8" stroke="#836E9F"></path><path d="M900 422.6L875 409.6L867 414.3Z" fill="#ecafee" stroke="#836E9F"></path><path d="M867 414.3L900 359.9L771 330.7Z" fill="#d79ff7" stroke="#836E9F"></path><path d="M-10 600L0 493.6L0 449.7Z" fill="#f1b5ec" stroke="#836E9F"></path><path d="M0 449.7L0 493.6L53 457.4Z" fill="#c297ff" stroke="#836E9F"></path><path d="M25 515.6L0 569.1L73 566.3Z" fill="#d79ff7" stroke="#836E9F"></path><path d="M94 -9.3L0 55.7L142 87.4Z" fill="#fbcfe8" stroke="#836E9F"></path><path d="M0 71.9L-13 67.6L0 119.6Z" fill="#f5bbea" stroke="#836E9F"></path><path d="M0 0L0 55.7L94 -9.3Z" fill="#f1b5ec" stroke="#836E9F"></path><path d="M900 313.1L829 272L811 288.1Z" fill="#fac8e8" stroke="#836E9F"></path><path d="M855 190.1L900 145.6L843 121.7Z" fill="#ecafee" stroke="#836E9F"></path><path d="M900 359.9L900 313.1L811 288.1Z" fill="#cd9bfb" stroke="#836E9F"></path><path d="M905 433.9L900 422.6L867 414.3Z" fill="#d79ff7" stroke="#836E9F"></path><path d="M875 409.6L900 359.9L867 414.3Z" fill="#ecafee" stroke="#836E9F"></path><path d="M826 501.1L857 479.4L849 465.3Z" fill="#cd9bfb" stroke="#836E9F"></path><path d="M900 475.3L857 479.4L900 561.4Z" fill="#f8c1e9" stroke="#836E9F"></path><path d="M0 55.7L-13 67.6L0 71.9Z" fill="#cd9bfb" stroke="#836E9F"></path><path d="M900 306.3L900 199.4L829 272Z" fill="#e6a9f1" stroke="#836E9F"></path><path d="M825 -9.1L741 0L787 60.7Z" fill="#ecafee" stroke="#836E9F"></path><path d="M900 376.6L900 359.9L875 409.6Z" fill="#e6a9f1" stroke="#836E9F"></path><path d="M900 380L900 376.6L875 409.6Z" fill="#dfa4f4" stroke="#836E9F"></path><path d="M900 382.7L900 380L875 409.6Z" fill="#f8c1e9" stroke="#836E9F"></path><path d="M900 422.6L900 382.7L875 409.6Z" fill="#fac8e8" stroke="#836E9F"></path><path d="M862 52.6L787 60.7L843 121.7Z" fill="#f1b5ec" stroke="#836E9F"></path><path d="M774 -37.1L783 -56.1L673 0Z" fill="#e6a9f1" stroke="#836E9F"></path><path d="M900 67.7L862 52.6L843 121.7Z" fill="#c297ff" stroke="#836E9F"></path><path d="M839 0L825 -9.1L787 60.7Z" fill="#f1b5ec" stroke="#836E9F"></path><path d="M900 199.4L900 145.6L855 190.1Z" fill="#f8c1e9" stroke="#836E9F"></path><path d="M862 52.6L839 0L787 60.7Z" fill="#cd9bfb" stroke="#836E9F"></path><path d="M825 -9.1L900 -21.1L783 -56.1Z" fill="#c297ff" stroke="#836E9F"></path><path d="M905 433.9L867 414.3L849 465.3Z" fill="#dfa4f4" stroke="#836E9F"></path><path d="M-16 -43.1L0 0L94 -9.3Z" fill="#fac8e8" stroke="#836E9F"></path><path d="M0 55.7L-22 0L-13 67.6Z" fill="#fac8e8" stroke="#836E9F"></path><path d="M463 655.1L808 600L628 609.1Z" fill="#fac8e8" stroke="#836E9F"></path><path d="M705 600L808 600L718 586.1Z" fill="#ecafee" stroke="#836E9F"></path><path d="M785 538.1L836 600L826 501.1Z" fill="#cd9bfb" stroke="#836E9F"></path><path d="M900 475.3L905 433.9L849 465.3Z" fill="#dfa4f4" stroke="#836E9F"></path><path d="M900 422.6L921 367L900 382.7Z" fill="#e6a9f1" stroke="#836E9F"></path><path d="M900 382.7L921 367L900 380Z" fill="#cd9bfb" stroke="#836E9F"></path><path d="M900 380L921 367L900 376.6Z" fill="#dfa4f4" stroke="#836E9F"></path><path d="M900 376.6L921 367L900 359.9Z" fill="#ecafee" stroke="#836E9F"></path><path d="M900 359.9L921 367L900 313.1Z" fill="#ecafee" stroke="#836E9F"></path><path d="M900 313.1L921 367L900 306.3Z" fill="#e6a9f1" stroke="#836E9F"></path><path d="M900 306.3L921 367L900 199.4Z" fill="#f1b5ec" stroke="#836E9F"></path><path d="M900 199.4L934 0L900 145.6Z" fill="#ecafee" stroke="#836E9F"></path><path d="M900 475.3L849 465.3L857 479.4Z" fill="#fac8e8" stroke="#836E9F"></path><path d="M900 422.6L905 433.9L921 367Z" fill="#fbcfe8" stroke="#836E9F"></path><path d="M-10 600L0 569.1L0 493.6Z" fill="#fac8e8" stroke="#836E9F"></path><path d="M0 493.6L0 569.1L25 515.6Z" fill="#e6a9f1" stroke="#836E9F"></path><path d="M78 585.1L0 600L127 613.3Z" fill="#c297ff" stroke="#836E9F"></path><path d="M900 0L856 0L862 52.6Z" fill="#f5bbea" stroke="#836E9F"></path><path d="M862 52.6L856 0L839 0Z" fill="#fac8e8" stroke="#836E9F"></path><path d="M839 0L856 0L825 -9.1Z" fill="#fbcfe8" stroke="#836E9F"></path><path d="M900 561.4L857 479.4L826 501.1Z" fill="#fac8e8" stroke="#836E9F"></path><path d="M905 433.9L900 475.3L921 367Z" fill="#f5bbea" stroke="#836E9F"></path><path d="M-16 -43.1L-22 0L0 0Z" fill="#fac8e8" stroke="#836E9F"></path><path d="M0 0L-22 0L0 55.7Z" fill="#f8c1e9" stroke="#836E9F"></path><path d="M-13 67.6L-22 0L-28 221.3Z" fill="#d79ff7" stroke="#836E9F"></path><path d="M900 145.6L900 67.7L843 121.7Z" fill="#dfa4f4" stroke="#836E9F"></path><path d="M934 0L900 67.7L900 145.6Z" fill="#f8c1e9" stroke="#836E9F"></path><path d="M808 600L836 600L785 538.1Z" fill="#dfa4f4" stroke="#836E9F"></path><path d="M463 655.1L836 600L808 600Z" fill="#f5bbea" stroke="#836E9F"></path><path d="M-10 600L0 600L0 569.1Z" fill="#f5bbea" stroke="#836E9F"></path><path d="M0 569.1L0 600L73 566.3Z" fill="#d79ff7" stroke="#836E9F"></path><path d="M127 613.3L-10 600L332 654.1Z" fill="#fbcfe8" stroke="#836E9F"></path><path d="M-28 221.3L-10 600L0 449.7Z" fill="#ecafee" stroke="#836E9F"></path><path d="M0 600L-10 600L127 613.3Z" fill="#cd9bfb" stroke="#836E9F"></path><path d="M118 -28.1L-16 -43.1L94 -9.3Z" fill="#e6a9f1" stroke="#836E9F"></path><path d="M251 -45.1L-16 -43.1L118 -28.1Z" fill="#f8c1e9" stroke="#836E9F"></path><path d="M347 -52.1L-16 -43.1L251 -45.1Z" fill="#d79ff7" stroke="#836E9F"></path><path d="M463 655.1L862 600L836 600Z" fill="#d79ff7" stroke="#836E9F"></path><path d="M836 600L900 561.4L826 501.1Z" fill="#f5bbea" stroke="#836E9F"></path><path d="M934 0L900 0L900 67.7Z" fill="#f1b5ec" stroke="#836E9F"></path><path d="M900 67.7L900 0L862 52.6Z" fill="#fbcfe8" stroke="#836E9F"></path><path d="M856 0L900 -21.1L825 -9.1Z" fill="#f5bbea" stroke="#836E9F"></path><path d="M862 600L900 561.4L836 600Z" fill="#fac8e8" stroke="#836E9F"></path><path d="M900 475.3L900 561.4L921 367Z" fill="#f5bbea" stroke="#836E9F"></path><path d="M862 600L900 562.1L900 561.4Z" fill="#e6a9f1" stroke="#836E9F"></path><path d="M900 561.4L902 600L921 367Z" fill="#cd9bfb" stroke="#836E9F"></path><path d="M934 0L900 -21.1L900 0Z" fill="#dfa4f4" stroke="#836E9F"></path><path d="M900 0L900 -21.1L856 0Z" fill="#c297ff" stroke="#836E9F"></path><path d="M463 655.1L900 600L862 600Z" fill="#c297ff" stroke="#836E9F"></path><path d="M862 600L900 600L900 562.1Z" fill="#f5bbea" stroke="#836E9F"></path><path d="M900 562.1L902 600L900 561.4Z" fill="#fac8e8" stroke="#836E9F"></path><path d="M463 655.1L902 600L900 600Z" fill="#f5bbea" stroke="#836E9F"></path><path d="M900 600L902 600L900 562.1Z" fill="#e6a9f1" stroke="#836E9F"></path><path d="M921 367L934 0L900 199.4Z" fill="#fbcfe8" stroke="#836E9F"></path></g></svg>