<svg id="visual" viewBox="0 0 900 150" width="900" height="150" xmlns="http://www.w3.org/2000/svg" xmlns:xlink="http://www.w3.org/1999/xlink" version="1.1"><path d="M0 27L75 27L150 25L225 19L300 16L375 27L450 19L525 27L600 22L675 22L750 18L825 22L900 16L900 0L825 0L750 0L675 0L600 0L525 0L450 0L375 0L300 0L225 0L150 0L75 0L0 0Z" fill="#161618"></path><path d="M0 54L75 57L150 45L225 43L300 39L375 57L450 42L525 45L600 48L675 51L750 48L825 40L900 40L900 14L825 20L750 16L675 20L600 20L525 25L450 17L375 25L300 14L225 17L150 23L75 25L0 25Z" fill="#35354c"></path><path d="M0 79L75 100L150 78L225 102L300 99L375 86L450 88L525 97L600 97L675 99L750 103L825 82L900 91L900 38L825 38L750 46L675 49L600 46L525 43L450 40L375 55L300 37L225 41L150 43L75 55L0 52Z" fill="#5c5586"></path><path d="M0 129L75 132L150 138L225 138L300 139L375 138L450 138L525 135L600 130L675 138L750 138L825 132L900 132L900 89L825 80L750 101L675 97L600 95L525 95L450 86L375 84L300 97L225 100L150 76L75 98L0 77Z" fill="#8b76c2"></path><path d="M0 151L75 151L150 151L225 151L300 151L375 151L450 151L525 151L600 151L675 151L750 151L825 151L900 151L900 130L825 130L750 136L675 136L600 128L525 133L450 136L375 136L300 137L225 136L150 136L75 130L0 127Z" fill="#c297ff"></path></svg>